<?xml version="1.0" encoding="UTF-8" standalone="no"?>
<svg
   xmlns:dc="http://purl.org/dc/elements/1.1/"
   xmlns:cc="http://creativecommons.org/ns#"
   xmlns:rdf="http://www.w3.org/1999/02/22-rdf-syntax-ns#"
   xmlns:svg="http://www.w3.org/2000/svg"
   xmlns="http://www.w3.org/2000/svg"
   xmlns:sodipodi="http://sodipodi.sourceforge.net/DTD/sodipodi-0.dtd"
   xmlns:inkscape="http://www.inkscape.org/namespaces/inkscape"
   width="184"
   height="184"
   version="1.1"
   id="svg1977"
   inkscape:version="1.0.2 (e86c8708, 2021-01-15)"
   sodipodi:docname="languages.svg">
  <defs
     id="defs1971" />
  <sodipodi:namedview
     id="base"
     pagecolor="#ffffff"
     bordercolor="#666666"
     borderopacity="1.0"
     inkscape:pageopacity="0.0"
     inkscape:pageshadow="2"
     inkscape:zoom="3.3633744"
     inkscape:cx="90.703183"
     inkscape:cy="92.025938"
     inkscape:document-units="mm"
     inkscape:current-layer="svg1977"
     inkscape:document-rotation="0"
     showgrid="false"
     units="px"
     inkscape:window-width="1440"
     inkscape:window-height="855"
     inkscape:window-x="1080"
     inkscape:window-y="23"
     inkscape:window-maximized="1" />
  <metadata
     id="metadata1974">
    <rdf:RDF>
      <cc:Work
         rdf:about="">
        <dc:format>image/svg+xml</dc:format>
        <dc:type
           rdf:resource="http://purl.org/dc/dcmitype/StillImage" />
        <dc:title></dc:title>
      </cc:Work>
    </rdf:RDF>
  </metadata>
  <symbol id="es" viewBox="0 0 92 92">
  <path
     d="M 79.999995,1 H 12 C 5.900002,1 1,5.600002 1,11.300002 v 51.699991 c 0,5.7 4.900002,10.3 11,10.3 h 7.2 v 15.3 c 0,0.9 0.6,1.8 1.5,2.19999 0.4,0.20002 0.7,0.20002 1.1,0.20002 0.6,0 1.2,-0.20002 1.7,-0.5 l 22.7,-17.2 h 33.799995 c 6.1,0 11.00001,-4.6 11.00001,-10.299998 V 11.300002 C 91.000005,5.600002 86.099995,1 79.999995,1 Z M 44.3,51.499992 H 22.1 V 22.299998 H 43.5 V 27.5 H 28.1 v 6.199997 h 14.2 v 5.099998 H 28.1 v 7.499999 H 44.3 Z M 68.69999,49.599994 C 66.60001,51.399993 63.7,52.199995 60,52.199995 c -3.8,0 -6.9,-0.9 -9.1,-2.600001 -2.2,-1.699998 -3.3,-4.099997 -3.3,-7.2 h 5.8 c 0.20003,1.300003 0.6,2.300001 1.1,3 1,1.2 2.7,1.8 5.2,1.8 1.5,0 2.7,-0.200013 3.6,-0.499998 1.69999,-0.599999 2.60001,-1.700001 2.60001,-3.400002 0,-0.999998 -0.39999,-1.699997 -1.30001,-2.199998 -0.9,-0.500001 -2.2,-0.999999 -4.1,-1.400001 l -3.2,-0.699999 c -3.1,-0.699999 -5.2,-1.4 -6.4,-2.199997 -2,-1.300003 -3,-3.500001 -3,-6.3 0,-2.600001 1,-4.799999 2.9,-6.5 1.9,-1.700001 4.8,-2.600001 8.5,-2.600001 3.1,0 5.79999,0.800001 8.00002,2.4 2.19999,1.600002 3.39999,4.000002 3.49999,7.1 h -5.80002 c -0.0998,-1.8 -0.89998,-3 -2.39999,-3.699998 -1,-0.500001 -2.2,-0.700003 -3.6,-0.700003 -1.6,0 -2.9,0.299981 -3.9,1.000003 -1,0.6 -1.4,1.5 -1.4,2.699999 0,0.999999 0.5,1.8 1.4,2.299998 0.6,0.299981 1.9,0.700002 3.9,1.2 l 5.10001,1.199999 c 2.19998,0.500002 3.89998,1.2 5.00001,2.1 1.69999,1.4 2.59997,3.400001 2.59997,5.999998 0.10017,2.600001 -0.89998,4.8 -3,6.6 z"
     />
  </symbol>
  <symbol id="en" viewBox="92 0 92 92">
  <path
     d="m 172,1.000038 h -68 c -6.099997,0 -11,4.600025 -11,10.300006 v 51.70001 c 0,5.69998 4.900003,10.3 11,10.3 h 7.2 v 15.29998 c 0,0.90002 0.6,1.8 1.5,2.20003 0.4,0.19994 0.7,0.19994 1.1,0.19994 0.6,0 1.2,-0.19994 1.7,-0.5 l 22.7,-17.19999 H 172 c 6.1,0 11,-4.60002 11,-10.3 V 11.300007 C 183,5.600025 178.1,1 172,1 Z M 135.1,51.500044 H 113 V 22.300057 h 21.4 v 5.199988 H 119 v 6.200009 h 14.2 v 5.09998 H 119 v 7.50002 h 16.2 v 5.19999 z m 28.4,0 h -6.1 l -11.9,-20.69998 v 20.69998 h -5.7 V 22.300057 h 6.4 l 11.6,20.399997 V 22.300057 h 5.7 z"
     />
  </symbol>
  <symbol id="all" viewBox="92 92 92 92">
  <g
     transform="matrix(2.0930233,0,0,2.0930233,-4.2325582,87.767442)"
     style="fill:#f5a9b8;fill-opacity:1"
     id="g19">
    <path
       d="M 39.99,9.65 C 39.97,9.63 39.95,9.63 39.93,9.62 35.99,5.26 30.32,2.5 24,2.5 17.68,2.5 12.01,5.26 8.07,9.61 8.05,9.63 8.03,9.63 8.01,9.65 7.97,9.69 7.95,9.74 7.91,9.79 4.56,13.58 2.5,18.55 2.5,24 c 0,5.45 2.06,10.42 5.41,14.22 0.04,0.04 0.06,0.1 0.1,0.14 0.02,0.02 0.04,0.02 0.06,0.03 3.94,4.36 9.61,7.11 15.93,7.11 6.32,0 11.99,-2.76 15.93,-7.11 0.02,-0.02 0.04,-0.02 0.06,-0.04 0.04,-0.04 0.06,-0.09 0.1,-0.14 3.36,-3.79 5.41,-8.76 5.41,-14.22 0,-5.46 -2.06,-10.42 -5.41,-14.22 -0.04,-0.03 -0.06,-0.08 -0.1,-0.12 z m -3.16,1.05 c -1.23,1 -2.79,1.83 -4.57,2.46 -0.64,-2.62 -1.53,-4.97 -2.65,-6.79 2.73,0.88 5.19,2.38 7.22,4.33 z M 30.5,24 c 0,2.55 -0.2,4.94 -0.55,7.11 -1.89,-0.39 -3.9,-0.61 -5.95,-0.61 -2.05,0 -4.06,0.21 -5.95,0.61 C 17.7,28.94 17.5,26.55 17.5,24 c 0,-2.55 0.2,-4.94 0.55,-7.11 1.89,0.39 3.9,0.61 5.95,0.61 2.05,0 4.06,-0.21 5.95,-0.61 0.35,2.17 0.55,4.56 0.55,7.11 z M 24,5.5 c 1.98,0 4.1,3.3 5.36,8.46 -1.69,0.35 -3.5,0.54 -5.36,0.54 -1.86,0 -3.67,-0.19 -5.36,-0.54 C 19.9,8.8 22.02,5.5 24,5.5 Z M 18.4,6.37 C 17.28,8.19 16.39,10.54 15.75,13.16 13.97,12.53 12.41,11.7 11.18,10.7 13.2,8.75 15.66,7.25 18.4,6.37 Z M 5.5,24 c 0,-4.14 1.39,-7.96 3.7,-11.05 1.6,1.31 3.64,2.38 5.95,3.15 -0.42,2.54 -0.64,5.24 -0.64,7.89 0,2.65 0.22,5.35 0.64,7.89 C 12.84,32.65 10.8,33.72 9.2,35.03 6.89,31.96 5.5,28.14 5.5,24 Z m 5.67,13.3 c 1.23,-1 2.79,-1.83 4.57,-2.46 0.64,2.62 1.53,4.97 2.65,6.79 C 15.66,40.75 13.2,39.25 11.17,37.3 Z M 24,42.5 c -1.98,0 -4.1,-3.3 -5.36,-8.46 1.69,-0.35 3.5,-0.54 5.36,-0.54 1.86,0 3.67,0.19 5.36,0.54 C 28.1,39.2 25.98,42.5 24,42.5 Z m 5.6,-0.87 c 1.12,-1.82 2.01,-4.17 2.65,-6.79 1.78,0.63 3.34,1.46 4.57,2.46 -2.02,1.95 -4.48,3.45 -7.22,4.33 z m 9.2,-6.58 c -1.6,-1.31 -3.64,-2.38 -5.95,-3.15 0.42,-2.54 0.64,-5.24 0.64,-7.89 0,-2.65 -0.22,-5.35 -0.64,-7.89 2.31,-0.77 4.35,-1.84 5.95,-3.15 2.31,3.09 3.7,6.9 3.7,11.05 0,4.15 -1.39,7.94 -3.7,11.03 z"
       />
  </g>
  </symbol>
</svg>
